<?xml version="1.0" encoding="utf-8"?>
<!-- Generator: Adobe Illustrator 22.0.0, SVG Export Plug-In . SVG Version: 6.00 Build 0)  -->
<svg version="1.1" id="图层_1" xmlns="http://www.w3.org/2000/svg" xmlns:xlink="http://www.w3.org/1999/xlink" x="0px" y="0px"
	 viewBox="0 0 201.6 200" style="enable-background:new 0 0 201.6 200;" xml:space="preserve">
<style type="text/css">
	.st0{fill:#FFFFFF;}
</style>
<path class="st0" d="M135.1,99.4c-4.6,0.1-9.1,0.9-13.5,2.2c-4.3,1.4-8.4,3.3-12.3,5.4c-2,1-3.9,2.2-5.8,3.4c-1.9,1.2-3.7,2.6-5.4,4
	c-3.4,2.8-6.7,5.9-9.7,9.2c-0.7,0.8-1.5,1.6-2.1,2.5l-1.4,1.7c-5.9-2.6-13.6-4.8-23.5-4.2c-6.8,0.4-12.4,1.6-16.9,3.9
	c1.9-3.6,4.2-7.8,6.6-12.4c14.7-23.3,33.1-29.3,49-29.6c14.3-0.3,33.4,3.9,50.8,17.7c-0.8-0.4-1.6-0.8-2.4-1.1
	C144.4,100,139.7,99.3,135.1,99.4L135.1,99.4z M68.6,148.8c-10,13.7-17.7,12.5-20.9,11.9c-3.8-0.6-6.5-1.8-9.2-5.6
	c-1.6-2.3-3.8-7.5-0.2-15.7c4.8-9.5,14.9-10.5,21.5-10.7c6.6-0.2,14.2,2.2,20.3,4.9C76.2,138.6,72.4,143.6,68.6,148.8L68.6,148.8z
	 M84.6,53.5c2-3.5,7.9-11.7,18.7-11.7c7.4,0,13.4,3.8,18.7,12c2.7,4.2,13.2,21.7,22.8,37.9c-21.7-16-56.1-20.5-80.4-1.4
	C74,72.7,83,56.4,84.6,53.5z M171.3,118.1L171.3,118.1c0,0,0-0.1-0.1-0.1l-0.1-0.1h0c-2.5-4.8-36.2-61.6-41.2-69.3
	c-7-10.8-16-16.3-26.7-16.3c-15.8,0-24.1,11.6-27,16.6c-3.4,6-42.9,78.2-46.5,86.1c-6,13.3-1.4,22.3,0.9,25.6
	c4.8,6.9,10.5,8.7,15.4,9.5c1.6,0.3,3.1,0.4,4.6,0.4c9.4,0,17.6-5.2,25.6-16.1c3.7-5.1,7.6-10.1,11.4-15.1l0,0l3.9-4.7l1.9-2.4
	c0.7-0.8,1.4-1.6,2.1-2.3c2.7-3,5.5-5.8,8.6-8.4c1.5-1.3,3.1-2.5,4.7-3.6c1.6-1.1,3.2-2.1,5-3.2c3.5-2,7-3.8,10.7-5.1
	c7.3-2.6,14.9-3.4,21.7-1.1c3.4,1,6.5,3,9.3,5.4c1.4,1.2,2.7,2.5,3.9,4c1.1,1.4,2.2,2.9,3.2,4.4c0.9,1.8,1.6,3.8,2.1,5.7
	c0.8,3.5,2.2,12.4-2.7,20.5c-4.9,7.9-13.6,12.4-24.1,12.3c-6.6,0-12.7-2.5-18.9-7.4c-2.8-2.2-6.9-6.3-8.7-8
	c-2.2-2.2-7.4-7.2-11.6-10.3c0,0-1.9,2.2-2.9,3.5c-1.1,1.3-3.1,4-3.1,4c3.6,2.6,8.7,7.5,10.9,9.6c2.9,2.8,6.6,6.4,9.4,8.6
	c7.8,6.3,16.2,9.5,24.9,9.6h0.2c13.6,0,25.5-6.3,32-16.9c6.9-11.1,5-23.1,3.9-27.7C173.4,123.1,172.5,120.5,171.3,118.1L171.3,118.1
	z"/>
<path class="st0" d="M61.4,123.3c-6.8,0.4-12.4,1.6-16.9,3.9l-5.4,10.7l0.1,0c5.1-8,14.3-9,20.6-9.1c6.6-0.2,14.1,2.2,20.3,4.9
	l4.8-6C79,124.9,71.4,122.7,61.4,123.3 M100.2,85.2c14.3-0.3,33.4,3.9,50.8,17.7c0.8,1.2-6.2-11.3-6.2-11.3
	c-21.7-16.1-56.1-20.5-80.4-1.4l-13,24.2C66.1,91.4,84.3,85.5,100.2,85.2"/>
</svg>
