<?xml version="1.0" encoding="utf-8"?>
<!-- Generator: Adobe Illustrator 22.0.0, SVG Export Plug-In . SVG Version: 6.00 Build 0)  -->
<svg version="1.1" id="图层_1" xmlns="http://www.w3.org/2000/svg" xmlns:xlink="http://www.w3.org/1999/xlink" x="0px" y="0px"
	 viewBox="0 0 200 200" style="enable-background:new 0 0 200 200;" xml:space="preserve">
<style type="text/css">
	.st0{fill:#FFFFFF;}
	.st1{fill:none;}
</style>
<path class="st0" d="M162,106.5c-3.2-15.9-17.1-28-34-28c-13.4,0-25,7.6-30.7,18.7c-13.9,1.4-24.7,13.2-24.7,27.5
	c0,15.2,12.5,27.7,27.7,27.7h60.1c12.7,0,23.1-10.4,23.1-23.1C183.4,117.2,174,107.2,162,106.5z M160.3,143.3h-60.1
	c-10.2,0-18.5-8.3-18.5-18.5c0-10.2,8.3-18.5,18.5-18.5h3.2c3-10.6,12.7-18.5,24.5-18.5c14.1,0,25.4,11.3,25.4,25.4v2.3h6.9
	c7.6,0,13.9,6.2,13.9,13.9C174.2,137,168,143.3,160.3,143.3z"/>
<g>
	<circle class="st1" cx="100" cy="39.7" r="7.5"/>
	<path class="st0" d="M145.2,163.5c0,1-0.8,1.9-1.9,1.9H56.6c-1,0-1.9-0.8-1.9-1.9V56.6c0-1,0.8-1.9,1.9-1.9h13.2v11.3
		c0,2.1,1.7,3.8,3.8,3.8h52.8c2.1,0,3.8-1.7,3.8-3.8V54.8h13.2c1,0,1.9,0.8,1.9,1.9v20c3.7,1.8,9.8,5.4,15.1,11.7V54.8
		c0-8.3-6.8-15.1-15.1-15.1h-25.1c0-11.1-9-20.1-20.1-20.1s-20.1,9-20.1,20.1H54.8c-8.3,0-15.1,6.8-15.1,15.1v110.6
		c0,8.3,6.8,15.1,15.1,15.1h90.5c8.3,0,15.1-6.8,15.1-15.1v-9h-15.1V163.5z M100,32.1c4.2,0,7.5,3.4,7.5,7.5c0,4.2-3.4,7.5-7.5,7.5
		s-7.5-3.4-7.5-7.5C92.5,35.5,95.8,32.1,100,32.1z"/>
</g>
</svg>
