<?xml version="1.0" standalone="no"?><!DOCTYPE svg PUBLIC "-//W3C//DTD SVG 1.1//EN" "http://www.w3.org/Graphics/SVG/1.1/DTD/svg11.dtd"><svg t="1596691026392" class="icon" viewBox="0 0 1024 1024" version="1.1" xmlns="http://www.w3.org/2000/svg" p-id="59677" xmlns:xlink="http://www.w3.org/1999/xlink" width="200" height="200"><defs><style type="text/css"></style></defs><path d="M670.352 128c11.684 0 21.67 8.414 23.652 19.929L698.147 172h22.55c17.856 0 32.67 13.813 33.917 31.626l42.84 612c1.311 18.732-12.811 34.98-31.543 36.291a34 34 0 0 1-2.374 0.083h-5.28l-5.767 25.329c-2.46 10.798-11.98 18.494-23.02 18.671H294.91a24 24 0 0 1-23.313-18.3l-0.088-0.371L265.742 852h-5.279c-18.777 0-34-15.222-34-34a34 34 0 0 1 0.083-2.374l42.84-612c1.247-17.813 16.06-31.626 33.917-31.626h22.548l4.145-24.071C331.978 136.414 341.964 128 353.648 128h316.704z m53.035 724H300.612l2.277 10H721.11l2.277-10z m-2.69-646H303.303l-42.84 612h503.074l-42.84-612z m-58.772-44H362.074l-1.722 10h303.295l-1.722-10z" fill="#ffffff" p-id="59678"></path><path d="M512 226c25.957 0 47 21.043 47 47s-21.043 47-47 47-47-21.043-47-47 21.043-47 47-47z m0 24c-12.703 0-23 10.297-23 23s10.297 23 23 23 23-10.297 23-23-10.297-23-23-23z" fill="#ffffff" p-id="59679"></path><path d="M303 781m-17 0a17 17 0 1 0 34 0 17 17 0 1 0-34 0Z" fill="#ffffff" p-id="59680"></path><path d="M372.667 781m-17 0a17 17 0 1 0 34 0 17 17 0 1 0-34 0Z" fill="#ffffff" p-id="59681"></path><path d="M442.333 781m-17 0a17 17 0 1 0 34 0 17 17 0 1 0-34 0Z" fill="#ffffff" p-id="59682"></path><path d="M512 781m-17 0a17 17 0 1 0 34 0 17 17 0 1 0-34 0Z" fill="#ffffff" p-id="59683"></path><path d="M581.667 781m-17 0a17 17 0 1 0 34 0 17 17 0 1 0-34 0Z" fill="#ffffff" p-id="59684"></path><path d="M651.333 781m-17 0a17 17 0 1 0 34 0 17 17 0 1 0-34 0Z" fill="#ffffff" p-id="59685"></path><path d="M721 781m-17 0a17 17 0 1 0 34 0 17 17 0 1 0-34 0Z" fill="#ffffff" p-id="59686"></path><path d="M303 723m-17 0a17 17 0 1 0 34 0 17 17 0 1 0-34 0Z" fill="#ffffff" p-id="59687"></path><path d="M372.667 723m-17 0a17 17 0 1 0 34 0 17 17 0 1 0-34 0Z" fill="#ffffff" p-id="59688"></path><path d="M442.333 723m-17 0a17 17 0 1 0 34 0 17 17 0 1 0-34 0Z" fill="#ffffff" p-id="59689"></path><path d="M512 723m-17 0a17 17 0 1 0 34 0 17 17 0 1 0-34 0Z" fill="#ffffff" p-id="59690"></path><path d="M581.667 723m-17 0a17 17 0 1 0 34 0 17 17 0 1 0-34 0Z" fill="#ffffff" p-id="59691"></path><path d="M651.333 723m-17 0a17 17 0 1 0 34 0 17 17 0 1 0-34 0Z" fill="#ffffff" p-id="59692"></path><path d="M721 723m-17 0a17 17 0 1 0 34 0 17 17 0 1 0-34 0Z" fill="#ffffff" p-id="59693"></path><path d="M303 665m-17 0a17 17 0 1 0 34 0 17 17 0 1 0-34 0Z" fill="#ffffff" p-id="59694"></path><path d="M372.667 665m-17 0a17 17 0 1 0 34 0 17 17 0 1 0-34 0Z" fill="#ffffff" p-id="59695"></path><path d="M442.333 665m-17 0a17 17 0 1 0 34 0 17 17 0 1 0-34 0Z" fill="#ffffff" p-id="59696"></path><path d="M512 665m-17 0a17 17 0 1 0 34 0 17 17 0 1 0-34 0Z" fill="#ffffff" p-id="59697"></path><path d="M581.667 665m-17 0a17 17 0 1 0 34 0 17 17 0 1 0-34 0Z" fill="#ffffff" p-id="59698"></path><path d="M651.333 665m-17 0a17 17 0 1 0 34 0 17 17 0 1 0-34 0Z" fill="#ffffff" p-id="59699"></path><path d="M721 665m-17 0a17 17 0 1 0 34 0 17 17 0 1 0-34 0Z" fill="#ffffff" p-id="59700"></path></svg>