<?xml version="1.0" encoding="utf-8"?>
<!-- Generator: Adobe Illustrator 22.0.0, SVG Export Plug-In . SVG Version: 6.00 Build 0)  -->
<svg version="1.1" id="图层_1" xmlns="http://www.w3.org/2000/svg" xmlns:xlink="http://www.w3.org/1999/xlink" x="0px" y="0px"
	 viewBox="0 0 200 200" style="enable-background:new 0 0 200 200;" xml:space="preserve">
<style type="text/css">
	.st0{fill:#FFFFFF;}
</style>
<path class="st0" d="M137,27c3.3,0,6,2.7,6,6v134c0,3.3-2.7,6-6,6H63c-3.3,0-6-2.7-6-6V33c0-3.3,2.7-6,6-6H137 M137,15H63
	c-9.9,0-18,8.1-18,18v134c0,9.9,8.1,18,18,18h74c9.9,0,18-8.1,18-18V33C155,23.1,146.9,15,137,15L137,15z"/>
<path class="st0" d="M143.5,147.7h-87c-6.3,0-11.5,5.1-11.5,11.5v8.7c0,6.3,5.1,11.5,11.5,11.5h87c6.3,0,11.5-5.1,11.5-11.5v-8.7
	C155,152.8,149.8,147.7,143.5,147.7z M99.8,171.2c-5,0-9.1-4.1-9.1-9.1c0-5,4.1-9.1,9.1-9.1s9.1,4.1,9.1,9.1
	C108.9,167.1,104.8,171.2,99.8,171.2z"/>
<path class="st0" d="M76,62.1c12.9-12.9,33.7-12.9,46.6-0.1c0,0,0.1,0.1,0.1,0.1c12.9,12.9,9.9,33.9-3,46.8l-20.3,23.4L79,108.9
	C66.1,96,63.1,75,76,62.1L76,62.1z M99.3,123.8l16.1-19.2c10.6-10.6,13.6-27.7,3-38.3c-10.5-10.6-27.6-10.6-38.2-0.1
	c0,0,0,0-0.1,0.1c-10.6,10.6-7.6,27.7,3,38.3L99.3,123.8z M99.3,67.4c-8.3,0-15.1,6.7-15.1,15s6.7,15.1,15,15.1
	c8.3,0,15.1-6.7,15.1-15c0,0,0,0,0,0C114.4,74.2,107.6,67.4,99.3,67.4C99.3,67.4,99.3,67.4,99.3,67.4L99.3,67.4z M99.3,91.5
	c-5,0-9-4-9-9s4-9,9-9c5,0,9,4,9,9c0,0,0,0,0,0C108.4,87.5,104.3,91.5,99.3,91.5C99.3,91.5,99.3,91.5,99.3,91.5L99.3,91.5z"/>
</svg>
