<?xml version="1.0" encoding="utf-8"?>
<!-- Generator: Adobe Illustrator 22.0.0, SVG Export Plug-In . SVG Version: 6.00 Build 0)  -->
<svg version="1.1" id="图层_1" xmlns="http://www.w3.org/2000/svg" xmlns:xlink="http://www.w3.org/1999/xlink" x="0px" y="0px"
	 viewBox="0 0 200 200" style="enable-background:new 0 0 200 200;" xml:space="preserve">
<style type="text/css">
	.st0{fill:#FFFFFF;}
</style>
<path class="st0" d="M100,178.4c-43.3,0-78.4-35.2-78.4-78.4S56.7,21.6,100,21.6s78.4,35.2,78.4,78.4S143.3,178.4,100,178.4z
	 M100,28.4c-39.5,0-71.6,32.1-71.6,71.6s32.1,71.6,71.6,71.6s71.6-32.1,71.6-71.6S139.5,28.4,100,28.4z"/>
<path class="st0" d="M86.4,130.7c-1.9,0-3.4-1.5-3.4-3.4V72.7c0-1.9,1.5-3.4,3.4-3.4c0.7,0,1.3,0.2,1.9,0.6l40.9,27.3
	c1.6,1.1,2,3.2,0.9,4.8c-0.2,0.4-0.6,0.7-0.9,0.9l-40.9,27.3C87.7,130.5,87,130.7,86.4,130.7z M89.8,79.1v41.8l31.4-20.9L89.8,79.1z
	"/>
<path class="st0" d="M100,158c-32,0-58-26-58-58s26-58,58-58s58,26,58,58S132,158,100,158L100,158z M100,48.8
	c-28.2,0-51.2,22.9-51.2,51.2s22.9,51.2,51.2,51.2s51.2-22.9,51.2-51.2S128.2,48.8,100,48.8z"/>
<path class="st0" d="M100,48.8c-1.9,0-3.4-1.5-3.4-3.4c0,0,0,0,0,0V25c0-1.9,1.5-3.4,3.4-3.4c1.9,0,3.4,1.5,3.4,3.4v20.5
	C103.4,47.3,101.9,48.8,100,48.8C100,48.8,100,48.8,100,48.8z M175,103.4h-20.5c-1.9,0-3.4-1.5-3.4-3.4c0-1.9,1.5-3.4,3.4-3.4H175
	c1.9,0,3.4,1.5,3.4,3.4C178.4,101.9,176.9,103.4,175,103.4z M100,178.4c-1.9,0-3.4-1.5-3.4-3.4v-20.5c0-1.9,1.5-3.4,3.4-3.4
	c1.9,0,3.4,1.5,3.4,3.4V175C103.4,176.9,101.9,178.4,100,178.4z M45.4,103.4H25c-1.9,0-3.4-1.5-3.4-3.4c0-1.9,1.5-3.4,3.4-3.4h20.5
	c1.9,0,3.4,1.5,3.4,3.4C48.8,101.9,47.3,103.4,45.4,103.4z"/>
</svg>
