<?xml version="1.0" encoding="utf-8"?>
<!-- Generator: Adobe Illustrator 22.0.0, SVG Export Plug-In . SVG Version: 6.00 Build 0)  -->
<svg version="1.1" id="图层_1" xmlns="http://www.w3.org/2000/svg" xmlns:xlink="http://www.w3.org/1999/xlink" x="0px" y="0px"
	 viewBox="0 0 200 200" style="enable-background:new 0 0 200 200;" xml:space="preserve">
<style type="text/css">
	.st0{fill:#FFFFFF;}
</style>
<path class="st0" d="M123.6,80.9c-2.4,0-4.8,2.4-4.8,4.8V92c0,2.4-2.4,4.8-5.5,4.8c-3.2,0-5.5-2.4-5.5-5.5V73c0-2.4-2.4-4.8-4.8-4.8
	s-4.8,2.4-4.8,4.8v11.9c0,2.4-2.4,5.5-5.5,5.5s-5.5-2.4-5.5-5.5V69.8c0-2.4-2.4-4.8-4.8-4.8c-4,0-7.1,1.6-7.1,4.8v21.4
	c0,2.4-2.4,5.5-5.5,5.5s-5.5-2.4-5.5-5.5v-5.5c0-2.4-2.4-4.8-4.8-4.8c-3.2,0-4.8,1.6-4.8,4.8v23.8c0,2.4,2.4,4.8,4.8,4.8
	c3.2,0,4.8-2.4,4.8-4.8v-2.4c0-2.4,2.4-5.5,5.5-5.5s5.5,2.4,5.5,5.5v8.7c0,2.4,2.4,4.8,4.8,4.8c3.2,0,4.8-2.4,4.8-4.8V99.9
	c0-2.4,2.4-5.5,5.5-5.5c3.2,0,5.5,2.4,5.5,5.5v19c0,2.4,2.4,4.8,4.8,4.8s4.8-2.4,4.8-4.8v-11.9c0-2.4,2.4-5.5,5.5-5.5
	c3.2,0,5.5,2.4,5.5,4.8v2.4c0,2.4,2.4,4.8,4.8,4.8s4.8-2.4,4.8-4.8V84.9C128.4,82.5,126,80.9,123.6,80.9L123.6,80.9z M49.2,90.4
	c-2.4,0-5.5,1.6-5.5,4.8v4.8c0,2.4,2.4,4.8,4.8,4.8c2.4,0,4.8-2.4,4.8-4.8v-4.8C53.1,92,51.5,90.4,49.2,90.4z M136.3,90.4
	c-2.4,0-4.8,2.4-4.8,4.8v4.8c0,2.4,2.4,4.8,4.8,4.8s4.8-2.4,4.8-4.8v-4.8C141.1,92,138.7,90.4,136.3,90.4z"/>
<path class="st0" d="M156.9,119.8V76.2c4.8-2.4,7.9-7.1,7.9-11.9c0-7.1-5.5-12.7-13.5-12.7c-2.4,0-5.5,0.8-7.9,2.4l-38.8-21.4
	c0-7.1-5.5-12.7-13.5-12.7s-12.7,4.8-12.7,11.9l-38.8,23c-2.4-1.6-5.5-2.4-7.9-2.4c-7.9-0.8-13.5,5.5-13.5,12.7
	c0,4.8,3.2,9.5,8.7,11.9v43.6c-5.5,1.6-8.7,6.3-8.7,11.1c0,7.1,5.5,12.7,13.5,12.7c2.4,0,5.5-0.8,7.9-2.4l39.6,22.2
	c0,7.1,5.5,12.7,13.5,12.7c7.1,0,13.5-5.5,13.5-12.7l38.8-22.2c2.4,1.6,4.8,2.4,7.1,2.4c7.1,0,13.5-5.5,13.5-12.7
	C164.8,126.9,161.7,122.1,156.9,119.8L156.9,119.8z M148.2,119.8c-1.6,0-3.2,0.8-4.8,1.6l-9.5-5.5h-1.6c-2.4,0-4.8,1.6-4.8,4
	c0,1.6,0.8,2.4,1.6,3.2l8.7,4.8c0,1.6-0.8,2.4-0.8,4s0,2.4,0.8,4l-37.2,20.6c-1.6-1.6-3.2-3.2-6.3-4.8v-11.1c0-2.4-1.6-4-4.8-4
	c-2.4,0-4,1.6-4.8,4v10.3c-2.4,0.8-4.8,2.4-6.3,4.8L41.2,134c0-1.6,0.8-2.4,0.8-4v-2.4l8.7-5.5c0.8-0.8,1.6-1.6,1.6-3.2
	c0-2.4-1.6-4-4.8-4c-0.8,0-1.6,0-2.4,0.8l-6.3,6.3l-4.8-2.4V77c1.6-0.8,3.2-1.6,4-2.4l9.5,4.8h1.6c2.4,0,4.8-1.6,4.8-4
	c0-0.8-0.8-2.4-1.6-3.2l-7.9-4.8v-2.4v-3.2l37.2-21.4c1.6,1.6,4,3.2,6.3,4v11.1c0,2.4,1.6,4,4.8,4c2.4,0,4.8-1.6,4.8-4V44.5
	c2.4-0.8,4.8-2.4,5.5-4l37.2,20.6v4.8l-8.7,5.5c-2.4,0.8-3.2,1.6-3.2,3.2c0,2.4,1.6,4,4.8,4h1.6l8.7-4.8c1.6,1.6,4,2.4,6.3,3.2
	L148.2,119.8z"/>
</svg>
