<?xml version="1.0" encoding="utf-8"?>
<!-- Generator: Adobe Illustrator 22.0.0, SVG Export Plug-In . SVG Version: 6.00 Build 0)  -->
<svg version="1.1" id="图层_1" xmlns="http://www.w3.org/2000/svg" xmlns:xlink="http://www.w3.org/1999/xlink" x="0px" y="0px"
	 viewBox="0 0 200.6 200" style="enable-background:new 0 0 200.6 200;" xml:space="preserve">
<style type="text/css">
	.st0{fill:#FFFFFF;}
</style>
<path class="st0" d="M160.1,82.2L176,76h-28.3v8.8l-13.2,3.6h25.6V82.2z M147.7,110.5H176l-15.9-7.1v-6.2h-25.6l13.3,4.4V110.5z
	 M126.5,132.7c1.8,0,3.5,0,4.4-1.8V54.8c-0.9-1.8-2.7-1.8-4.4-1.8l-21.2,20.3H80.5v39.8h24.8L126.5,132.7z"/>
<path class="st0" d="M143.5,147.7h-87c-6.3,0-11.5,5.1-11.5,11.5v8.7c0,6.3,5.1,11.5,11.5,11.5h87c6.3,0,11.5-5.1,11.5-11.5v-8.7
	C155,152.8,149.8,147.7,143.5,147.7z M99.8,171.2c-5,0-9.1-4.1-9.1-9.1s4.1-9.1,9.1-9.1s9.1,4.1,9.1,9.1
	C108.9,167.1,104.8,171.2,99.8,171.2z"/>
<g>
	<path class="st0" d="M143,167c0,3.3-2.7,6-6,6H63c-3.3,0-6-2.7-6-6V33c0-3.3,2.7-6,6-6h74c3.3,0,6,2.7,6,6v31.4h12V33
		c0-9.9-8.1-18-18-18H63c-9.9,0-18,8.1-18,18v134c0,9.9,8.1,18,18,18h74c9.9,0,18-8.1,18-18v-47.1h-12V167z"/>
</g>
</svg>
