<?xml version="1.0" standalone="no"?><!DOCTYPE svg PUBLIC "-//W3C//DTD SVG 1.1//EN" "http://www.w3.org/Graphics/SVG/1.1/DTD/svg11.dtd"><svg t="1596635249806" class="icon" viewBox="0 0 1024 1024" version="1.1" xmlns="http://www.w3.org/2000/svg" p-id="2223" xmlns:xlink="http://www.w3.org/1999/xlink" width="200" height="200"><defs><style type="text/css"></style></defs><path d="M701.44 138.24c16.896 0 30.72 13.824 30.72 30.72v686.08c0 16.896-13.824 30.72-30.72 30.72H322.56c-16.896 0-30.72-13.824-30.72-30.72V168.96c0-16.896 13.824-30.72 30.72-30.72h378.88m0-61.44H322.56c-50.688 0-92.16 41.472-92.16 92.16v686.08c0 50.688 41.472 92.16 92.16 92.16h378.88c50.688 0 92.16-41.472 92.16-92.16V168.96c0-50.688-41.472-92.16-92.16-92.16z" p-id="2224" fill="#ffffff"></path><path d="M734.72 756.224h-445.44c-32.256 0-58.88 26.112-58.88 58.88v44.544c0 32.256 26.112 58.88 58.88 58.88h445.44c32.256 0 58.88-26.112 58.88-58.88v-44.544c0-32.768-26.624-58.88-58.88-58.88z m-223.744 120.32c-25.6 0-46.592-20.992-46.592-46.592s20.992-46.592 46.592-46.592 46.592 20.992 46.592 46.592-20.992 46.592-46.592 46.592z" p-id="2225" fill="#ffffff"></path></svg>