<?xml version="1.0" encoding="utf-8"?>
<!-- Generator: Adobe Illustrator 22.0.0, SVG Export Plug-In . SVG Version: 6.00 Build 0)  -->
<svg version="1.1" id="图层_1" xmlns="http://www.w3.org/2000/svg" xmlns:xlink="http://www.w3.org/1999/xlink" x="0px" y="0px"
	 viewBox="0 0 200 200" style="enable-background:new 0 0 200 200;" xml:space="preserve">
<style type="text/css">
	.st0{fill:#FFFFFF;}
</style>
<g>
	<path class="st0" d="M63,173c-3.3,0-6-2.7-6-6V33c0-3.3,2.7-6,6-6h74c3.3,0,6,2.7,6,6v54.6h12V33c0-9.9-8.1-18-18-18H63
		c-9.9,0-18,8.1-18,18v134c0,9.9,8.1,18,18,18h63.3v-12H63z"/>
</g>
<g>
	<path class="st0" d="M153.7,150.2c3-5.1,4.6-10.9,4.6-16.9c0-18.4-14.9-33.3-33.3-33.3c-5.9,0-11.8,1.6-16.9,4.6
		c-15.9,9.3-21.1,29.7-11.8,45.6c9.3,15.9,29.7,21.1,45.6,11.8l18.4,18.4l11.8-11.8L153.7,150.2z M125,150
		c-9.2,0-16.7-7.5-16.7-16.7s7.5-16.7,16.7-16.7s16.7,7.5,16.7,16.7S134.2,150,125,150z"/>
</g>
</svg>
