<?xml version="1.0" encoding="utf-8"?>
<!-- Generator: Adobe Illustrator 22.0.0, SVG Export Plug-In . SVG Version: 6.00 Build 0)  -->
<svg version="1.1" id="图层_1" xmlns="http://www.w3.org/2000/svg" xmlns:xlink="http://www.w3.org/1999/xlink" x="0px" y="0px"
	 viewBox="0 0 200 200" style="enable-background:new 0 0 200 200;" xml:space="preserve">
<style type="text/css">
	.st0{fill:#FFFFFF;}
</style>
<path class="st0" d="M100,172.1c-5,0-9-4-9-9V36.9c0-5,4-9,9-9c5,0,9,4,9,9v126.3C109,168.1,105,172.1,100,172.1L100,172.1z
	 M133.8,146.9c-5,0-9-4-9-9V62.1c0-5,4-9,9-9c5,0,9,4,9,9v75.8C142.7,142.8,138.7,146.9,133.8,146.9z M66.3,146.9c-5,0-9-4-9-9V62.1
	c0-5,4-9,9-9s9,4,9,9v75.8C75.3,142.8,71.3,146.9,66.3,146.9z M167.5,121.6c-5,0-9-4-9-9V87.4c0-5,4-9,9-9c5,0,9,4,9,9v25.3
	C176.4,117.6,172.4,121.6,167.5,121.6L167.5,121.6z M32.6,121.6c-5,0-9-4-9-9V87.4c0-5,4-9,9-9s9,4,9,9v25.3
	C41.6,117.6,37.6,121.6,32.6,121.6z"/>
</svg>
