<?xml version="1.0" encoding="utf-8"?>
<!-- Generator: Adobe Illustrator 22.0.0, SVG Export Plug-In . SVG Version: 6.00 Build 0)  -->
<svg version="1.1" id="图层_1" xmlns="http://www.w3.org/2000/svg" xmlns:xlink="http://www.w3.org/1999/xlink" x="0px" y="0px"
	 viewBox="0 0 200 200" style="enable-background:new 0 0 200 200;" xml:space="preserve">
<style type="text/css">
	.st0{fill:#FFFFFF;}
</style>
<path class="st0" d="M100,173.4c-1.6,0-2.8-1.3-2.8-2.8v-6.4c0-1.6,1.3-2.8,2.8-2.8c1.6,0,2.8,1.3,2.8,2.8c0,0,0,0,0,0v6.4
	C102.8,172.2,101.6,173.4,100,173.4z M135.3,164.3c-1,0-2-0.5-2.5-1.4l-3.1-5.5c-0.8-1.3-0.3-3.1,1-3.9c1.3-0.8,3.1-0.3,3.9,1
	c0,0,0,0.1,0,0.1l3.1,5.5c0.8,1.4,0.3,3.1-1.1,3.8C136.3,164.1,135.8,164.3,135.3,164.3L135.3,164.3z M64.7,164
	c-1.6,0-2.8-1.3-2.8-2.8c0-0.5,0.1-1,0.4-1.4l3.1-5.2c0.8-1.3,2.5-1.8,3.9-1c1.3,0.8,1.8,2.5,1,3.9l0,0l-3.1,5.2
	C66.6,163.5,65.7,164,64.7,164z M100,159.3c-10.9,0-20.9-2.6-29.8-7.7c-4.3-2.6-8.4-5.8-12.2-9.6c-3.6-3.6-6.8-7.6-9.5-12
	c-5.2-8.9-7.9-18.9-7.9-29.8c0-11,2.6-21,7.7-29.8C51,66,54.2,61.9,58,58c3.8-3.8,7.9-7,12.2-9.5c8.9-5.2,18.9-7.9,29.8-7.9
	c10.9,0,20.9,2.7,29.7,7.9c4.5,2.6,8.6,5.8,12.3,9.5c3.7,3.7,7,7.9,9.6,12.4c5.1,8.7,7.7,18.6,7.7,29.5c0,11.1-2.7,21-7.9,29.8
	c-2.6,4.4-5.8,8.5-9.5,12.1c-3.7,3.7-7.8,6.9-12.3,9.6C120.9,156.7,110.9,159.3,100,159.3z M100,46.3c-9.9,0-19,2.4-27,7.1
	c-3.8,2.2-7.5,5.1-11,8.6c-3.4,3.3-6.3,7.1-8.7,11.2c-4.6,7.9-7,16.9-7,26.8c0,10,2.4,19.1,7.1,27.1c2.4,4,5.3,7.6,8.6,10.9
	c3.5,3.5,7.2,6.4,11,8.8c7.9,4.6,17,6.9,26.9,6.9c9.9,0,18.9-2.3,26.8-7c4.1-2.4,7.8-5.4,11.1-8.7c3.3-3.3,6.2-7,8.6-11
	c4.7-7.9,7.1-16.9,7.1-26.8c0-10-2.3-19-7-26.8c-2.4-4.1-5.3-7.9-8.7-11.3c-3.3-3.3-7.1-6.2-11.1-8.6
	C118.9,48.7,109.9,46.3,100,46.3z M161.2,138.3c-0.5,0-1-0.1-1.4-0.4l-5.4-3.1c-1.3-0.8-1.8-2.5-1-3.9c0,0,0,0,0,0
	c0.8-1.3,2.5-1.8,3.8-1c0,0,0,0,0,0l5.4,3.1c1.3,0.8,1.8,2.5,1,3.9c0,0,0,0,0,0C163.1,137.7,162.2,138.3,161.2,138.3L161.2,138.3z
	 M39,138.1c-1.6,0-2.8-1.3-2.8-2.8c0-1,0.5-2,1.4-2.5l5.2-3c1.4-0.8,3.1-0.3,3.9,1.1c0.8,1.4,0.3,3.1-1.1,3.9l0,0l-5.2,3
	C40,138,39.5,138.1,39,138.1z M170.6,103h-6.4c-1.6,0-2.8-1.3-2.8-2.8c0-1.6,1.3-2.8,2.8-2.8c0,0,0,0,0,0h6.4c1.6,0,2.8,1.3,2.8,2.8
	C173.4,101.7,172.2,103,170.6,103C170.6,103,170.6,103,170.6,103z M35.7,103h-6.4c-1.6,0-2.8-1.3-2.8-2.8c0-1.6,1.3-2.8,2.8-2.8
	c0,0,0,0,0,0h6.4c1.6,0,2.8,1.3,2.8,2.8C38.6,101.7,37.3,103,35.7,103z M125.3,85c-2.8,0-5.1-1-7.1-2.9c-1.9-1.8-3-4.3-3.1-7
	c0-2.9,1-5.3,2.9-7.2c2-2,4.4-2.9,7.1-2.8h0c2.7,0,5.1,1,7.1,2.9c1.9,1.9,2.9,4.5,2.8,7.1c0,2.5-1,4.8-2.9,6.7
	C130.2,83.9,127.9,84.9,125.3,85L125.3,85L125.3,85z M124.8,70.8c-1.1,0-1.9,0.4-2.7,1.2c-0.8,0.8-1.3,1.9-1.3,3.1
	c0.1,1.1,0.5,2.2,1.4,3.1c0.9,0.9,1.8,1.3,2.9,1.3c1-0.1,2-0.5,2.9-1.4c0.9-0.9,1.3-1.8,1.3-2.8l0-0.1c0.1-1.2-0.3-2.1-1.2-3
	c-0.9-0.9-1.9-1.3-3.2-1.3C124.9,70.8,124.8,70.8,124.8,70.8z M44.1,70.8c-0.5,0-1-0.1-1.4-0.4l-5.2-3.1c-1.3-0.8-1.8-2.5-1-3.9
	c0.8-1.3,2.5-1.8,3.9-1l5.2,3.1c1.3,0.8,1.8,2.5,1,3.9C46,70.2,45.1,70.8,44.1,70.8z M155.9,70.8c-1.6,0-2.8-1.3-2.8-2.8
	c0-1,0.5-1.9,1.4-2.4l5.4-3.2c1.3-0.8,3.1-0.4,3.9,0.9c0.8,1.3,0.4,3.1-0.9,3.9c0,0-0.1,0-0.1,0.1l-5.4,3.2
	C157,70.6,156.4,70.8,155.9,70.8z M132.2,47c-1.6,0-2.8-1.3-2.8-2.8c0-0.5,0.1-1,0.4-1.4l3.1-5.4c0.7-1.4,2.5-1.9,3.8-1.1
	c1.4,0.7,1.9,2.5,1.1,3.8c0,0-0.1,0.1-0.1,0.1l-3.1,5.4C134.1,46.5,133.2,47,132.2,47z M67.7,47c-1,0-1.9-0.5-2.4-1.4l-3-5.1
	c-0.8-1.3-0.3-3.1,1-3.9c1.3-0.8,3.1-0.3,3.9,1l0,0l3,5.1c0.8,1.3,0.3,3.1-1,3.9C68.6,46.9,68.2,47,67.7,47z M100,38.4
	c-1.6,0-2.8-1.3-2.8-2.8l0,0v-6.2c0-1.6,1.3-2.8,2.8-2.8c1.6,0,2.8,1.3,2.8,2.8v6.2C102.8,37.2,101.6,38.4,100,38.4
	C100,38.4,100,38.4,100,38.4z"/>
</svg>
