<?xml version="1.0" standalone="no"?><!DOCTYPE svg PUBLIC "-//W3C//DTD SVG 1.1//EN" "http://www.w3.org/Graphics/SVG/1.1/DTD/svg11.dtd"><svg t="1615177758224" class="icon" viewBox="0 0 1024 1024" version="1.1" xmlns="http://www.w3.org/2000/svg" p-id="4276" xmlns:xlink="http://www.w3.org/1999/xlink" width="48" height="48"><defs><style type="text/css"></style></defs><path d="M712.5504 117.3504H183.4496c-36.5056 0-66.0992 29.5936-66.0992 66.0992v529.1008c0 36.5056 29.5936 66.0992 66.0992 66.0992h125.8496V311.3984l0.3072-2.6624c-0.1024 1.3312 0.8192 0.512 1.8432 0.512h467.1488l0.0512-125.7984c0-36.5568-29.5936-66.1504-66.0992-66.1504z m0 64l1.024 0.256c0.6656 0.4096 1.0752 1.0752 1.0752 1.8432l-0.0512 61.7984-403.1488 0.1024c-32.8704 0-60.6208 24.1152-65.3824 56.3712l-0.6656 7.424-0.1536 405.4528-61.7984 0.0512a2.1504 2.1504 0 0 1-2.0992-2.0992V183.4496c0-1.1776 0.9216-2.0992 2.0992-2.0992h529.1008z" fill="#ffffff" p-id="4277"></path><path d="M840.5504 245.3504H311.4496c-36.5056 0-66.0992 29.5936-66.0992 66.0992v529.1008c0 36.5056 29.5936 66.0992 66.0992 66.0992h529.1008c36.5056 0 66.0992-29.5936 66.0992-66.0992V311.4496c0-36.5056-29.5936-66.0992-66.0992-66.0992zM311.4496 309.3504h529.1008c1.1776 0 2.0992 0.9216 2.0992 2.0992v529.1008a2.1504 2.1504 0 0 1-2.0992 2.0992H311.4496a2.1504 2.1504 0 0 1-2.0992-2.0992V311.4496c0-1.1776 0.9216-2.0992 2.0992-2.0992z" fill="#ffffff" p-id="4278"></path><path d="M565.6576 400.7936l63.3344 9.0624-42.6496 298.6496-63.3344-9.0112zM682.496 695.9616l-45.2096-45.2096 98.048-98.048-98.048-98.0992 45.2096-45.2096 143.36 143.3088zM474.624 695.9616l45.312-45.2096-98.0992-98.0992 98.0992-98.048-45.2608-45.2096-143.36 143.3088z" fill="#ffffff" p-id="4279"></path></svg>