<?xml version="1.0" standalone="no"?><!DOCTYPE svg PUBLIC "-//W3C//DTD SVG 1.1//EN" "http://www.w3.org/Graphics/SVG/1.1/DTD/svg11.dtd"><svg t="1615178286551" class="icon" viewBox="0 0 1024 1024" version="1.1" xmlns="http://www.w3.org/2000/svg" p-id="6093" xmlns:xlink="http://www.w3.org/1999/xlink" width="48" height="48"><defs><style type="text/css"></style></defs><path d="M511.888971 131.844817c-201.030549 0-365.490182 164.459632-365.490182 365.490182 0 201.029526 164.459632 365.489158 365.490182 365.489158 200.974267 0 365.489158-164.486238 365.489158-365.489158C877.37813 296.303426 712.864262 131.844817 511.888971 131.844817L511.888971 131.844817zM511.888971 817.137629c-178.187285 0-319.803653-141.617391-319.803653-319.803653 0-178.173982 141.616368-319.803653 319.803653-319.803653 178.213891 0 319.803653 141.629671 319.803653 319.803653C831.692624 675.520237 690.103886 817.137629 511.888971 817.137629L511.888971 817.137629zM558.123992 559.272653l124.265188 0 0-52.013631L558.123992 507.259022l0-36.996612c0-17.186428 1.593288-29.858028 4.804423-37.998429 1.236154-3.254114 1.895163-6.355755 1.895163-9.293667 0-2.923586-4.448312-4.337795-13.452383-4.337795l-56.613392 0 0 224.902236L432.872337 643.534755 432.872337 521.302877c0-16.830317 1.592264-29.363771 4.776793-37.409005 1.647523-3.88447 2.443655-7.234775 2.443655-10.021238 0-2.745531-4.145413-4.117784-12.574387-4.117784l-55.598272 0 0 173.779905-71.604828 0 0 53.620221 419.302785 0 0-53.620221L558.123992 643.534755 558.123992 559.272653 558.123992 559.272653zM547.965631 285.732673c1.866511-1.962701 4.6673-4.063549 8.236592-6.355755 3.624551-2.237971 5.299703-4.846378 5.299703-7.769964 0-2.292206-1.236154-4.076852-3.815909-5.353938-2.636037-1.331321-26.193569-7.631818-70.671573-19.026332-33.853016 88.311325-104.138802 151.102417-210.831776 188.469466 12.574387 10.378371 27.675316 26.742061 45.411259 49.145303 88.352257-43.846624 152.653749-94.612844 192.985316-152.420435 41.952484 62.337767 104.441701 112.828718 187.686636 151.472853 16.693194-26.288736 31.7931-47.058782 45.357024-62.337767-43.847647-10.694573-83.026972-27.977191-117.895107-51.80897C594.805426 345.833493 567.596737 317.842998 547.965631 285.732673L547.965631 285.732673zM547.965631 285.732673" p-id="6094" fill="#ffffff"></path></svg>