<?xml version="1.0" standalone="no"?><!DOCTYPE svg PUBLIC "-//W3C//DTD SVG 1.1//EN" "http://www.w3.org/Graphics/SVG/1.1/DTD/svg11.dtd"><svg t="1615178269150" class="icon" viewBox="0 0 1024 1024" version="1.1" xmlns="http://www.w3.org/2000/svg" p-id="5283" xmlns:xlink="http://www.w3.org/1999/xlink" width="48" height="48"><defs><style type="text/css"></style></defs><path d="M175.761194 145.19403H145.19403v733.61194c0 80.185313 164.22209 145.19403 366.80597 145.19403s366.80597-65.008716 366.80597-145.19403V145.19403h-30.567164v733.61194c0 23.078209-30.162149 51.306985-88.117493 74.247642C695.59403 978.592478 606.956896 993.432836 512 993.432836c-94.956896 0-183.59403-14.840358-248.121313-40.379224C205.923343 930.112955 175.761194 901.884179 175.761194 878.80597V145.19403z" fill="#ffffff" p-id="5284"></path><path d="M512 290.38806C309.416119 290.38806 145.19403 225.379343 145.19403 145.19403S309.416119 0 512 0s366.80597 65.008716 366.80597 145.19403-164.22209 145.19403-366.80597 145.19403z m0-30.567164c94.956896 0 183.59403-14.840358 248.121313-40.379224C818.076657 196.501015 848.238806 168.272239 848.238806 145.19403c0-23.078209-30.162149-51.306985-88.117493-74.247642C695.59403 45.407522 606.956896 30.567164 512 30.567164 417.043104 30.567164 328.40597 45.407522 263.878687 70.946388 205.923343 93.887045 175.761194 122.115821 175.761194 145.19403c0 23.078209 30.162149 51.306985 88.117493 74.247642C328.40597 244.980537 417.043104 259.820896 512 259.820896z" fill="#ffffff" p-id="5285"></path><path d="M512 229.253731c60.431284 0 116.835343-8.902687 157.894687-24.224477C706.77397 191.251104 725.970149 174.316896 725.970149 160.477612c0-13.846925-19.196179-30.781134-56.075462-44.551642C628.835343 100.611821 572.431284 91.701493 512 91.701493c-60.431284 0-116.835343 8.902687-157.894687 24.224477C317.22603 129.704119 298.029851 146.638328 298.029851 160.477612c0 13.846925 19.196179 30.781134 56.075462 44.551642C395.164657 220.343403 451.568716 229.253731 512 229.253731zM450.865672 741.253731V580.776119l122.268656-61.134328h30.567165v183.402985h-0.962866A30.567164 30.567164 0 1 1 573.134328 680.119403V557.850746l-91.701492 45.850747v160.477611h-0.962866A30.567164 30.567164 0 1 1 450.865672 741.253731z" fill="#ffffff" p-id="5286"></path></svg>